<svg t="1667703867850" class="icon" viewBox="0 0 1024 1024" version="1.1" xmlns="http://www.w3.org/2000/svg" p-id="8254" width="200" height="200"><path d="M286.72 737.28a20.48 20.48 0 1 1 0-40.96h87.04a20.48 20.48 0 1 1 0 40.96H286.72z" fill="#F29393" p-id="8255"></path><path d="M485.0176 233.45152L239.42144 299.264c-20.97152 5.62176-33.41824 27.2896-27.7504 48.4352l0.13312 0.55296 84.69504 355.05664a20.48 20.48 0 0 1-39.84384 9.50272l-84.6336-354.80064c-11.3152-42.86464 14.03904-86.85056 56.80128-98.30912l245.59104-65.80736a80.11264 80.11264 0 0 1 70.2464 14.37184c11.87328 9.2928 9.96864 27.8016-3.54816 34.48832a39.56736 39.56736 0 0 0-20.75136 25.344l-0.1536 0.54272-99.968 335.6672a20.48 20.48 0 0 1-39.25504-11.68896l99.8912-335.41632a80.75264 80.75264 0 0 1 11.65824-24.99584c-2.5088 0.16896-5.02272 0.58368-7.51616 1.24928z" fill="#EA5555" p-id="8256"></path><path d="M256.06144 708.13696a20.48 20.48 0 0 1 40.83712-3.15392l5.65248 73.17504v0.78848c0 5.29408 4.20864 9.53344 9.33376 9.53344h168.92416c0.36352 0 2.5344-0.95232 6.15424-3.41504 1.13152-0.768 5.28896-3.7376 5.24288-3.70688 2.99008-2.0992 5.11488-3.42528 7.77216-4.59776 17.29024-7.63392 32.50176 4.83328 32.50176 22.30272a20.48 20.48 0 0 1-23.13216 20.31104c-9.59488 6.43584-18.10944 10.06592-28.53888 10.06592H311.8848c-27.50976 0-49.8176-22.15936-50.28352-49.60256l-5.53984-71.70048zM491.52 799.06816c0 0.70144 0.1024 1.65888 0.48128 3.03616a17.7664 17.7664 0 0 0 6.03136 9.12384 18.7392 18.7392 0 0 0 12.96384 4.27008 15.4112 15.4112 0 0 0 6.11328-1.54624 38.48192 38.48192 0 0 0-1.36192 0.92672 449.50016 449.50016 0 0 1-6.4 4.49536A20.48 20.48 0 0 1 491.52 799.06304zM411.55584 492.57472a20.48 20.48 0 1 1-27.66336-30.208l50.97984-46.68928a20.48 20.48 0 1 1 27.66336 30.208l-50.97984 46.68928z" fill="#EA5555" p-id="8257"></path><path d="M790.94784 283.81696c0-21.248 91.14112 8.6272 70.79936 75.7504l-40.26368 150.272c-41.76384 27.11552-61.09184 42.37312-57.99424 45.7728 48.96768 53.66784 0 130.93888-136.04352 172.29824-64.49664 19.6096-63.76448 111.7696-167.84384 35.08736 371.46624-228.3776 372.75648-452.39808 331.34592-479.1808z" fill="#FCE4E4" p-id="8258"></path><path d="M390.56384 643.00544a20.48 20.48 0 1 1 20.48-35.47136l195.0976 112.64a20.48 20.48 0 1 1-20.48 35.47136l-195.0976-112.64z" fill="#F29393" p-id="8259"></path><path d="M841.96352 354.26816c5.66784-21.1456-6.784-42.82368-27.7504-48.44032l-245.60128-65.80736c-20.9664-5.61664-42.58816 6.92736-48.25088 28.07296l-0.1536 0.54272-104.18688 349.83424a20.48 20.48 0 1 1-39.25504-11.69408l104.11008-349.57824c11.63264-42.78272 55.5776-68.1984 98.33984-56.73984l245.59616 65.80736c42.8544 11.48416 68.22912 55.64416 56.71936 98.60096l-40.2688 150.272a20.48 20.48 0 0 1-2.03264 4.92032c-20.00384 34.7392-48.41472 48.99328-80.51712 36.75136a20.48 20.48 0 1 1 14.592-38.272c10.56768 4.02944 18.8928 0.23552 29.11744-16.6912l39.54176-147.57888z" fill="#EA5555" p-id="8260"></path><path d="M378.58304 602.43968a20.48 20.48 0 0 1 36.94592 17.68448l-31.6928 66.2016-0.39424 0.68096c-2.64704 4.58752-1.12128 10.36288 3.31264 12.92288l146.29888 84.45952c4.43392 2.56 10.19904 0.9984 12.84608-3.58912l0.512-0.88576 38.6816-53.79584a20.48 20.48 0 1 1 33.2544 23.9104l-37.56032 52.23936c-14.19264 23.36256-44.4672 31.3088-68.21376 17.59744l-146.29888-84.46464c-23.82336-13.75744-32.0512-44.09344-18.7392-68.10112l31.04768-64.86016z" fill="#EA5555" p-id="8261"></path><path d="M617.2928 753.63328a20.48 20.48 0 1 1-17.11104-37.21728l153.96864-70.78912 1.67424-0.44544c4.5568-1.22368 7.38304-6.25152 6.00064-11.40736l-41.33888-154.27584c-1.3824-5.15584-6.33856-8.10496-10.89536-6.88128l-0.6656 0.16384-88.47872 20.56704a20.48 20.48 0 1 1-9.27232-39.89504l88.18688-20.50048c26.50624-6.88128 53.54496 9.27232 60.69248 35.9424l41.33888 154.27584c7.00416 26.15808-7.61344 53.12-33.0752 61.0304l-151.02464 69.43232z" fill="#EA5555" p-id="8262"></path></svg>